<?xml version="1.0" encoding="UTF-8"?>
<!DOCTYPE svg PUBLIC "-//W3C//DTD SVG 1.1//EN" "http://www.w3.org/Graphics/SVG/1.1/DTD/svg11.dtd">
<svg xmlns="http://www.w3.org/2000/svg" version="1.1" width="1200px" height="512px" style="shape-rendering:geometricPrecision; text-rendering:geometricPrecision; image-rendering:optimizeQuality; fill-rule:evenodd; clip-rule:evenodd" xmlns:xlink="http://www.w3.org/1999/xlink">
<g><path style="opacity:1" fill="#ee3837" d="M 124.5,-0.5 C 442.833,-0.5 761.167,-0.5 1079.5,-0.5C 1143.98,21.6507 1183.98,65.9841 1199.5,132.5C 1199.5,214.833 1199.5,297.167 1199.5,379.5C 1187.93,433.295 1157.93,473.795 1109.5,501C 1101.19,504.874 1092.86,508.374 1084.5,511.5C 763.5,511.5 442.5,511.5 121.5,511.5C 55.7503,490.087 15.0836,445.754 -0.5,378.5C -0.5,296.5 -0.5,214.5 -0.5,132.5C 9.86983,84.6128 35.5365,47.1128 76.5,20C 91.5005,10.6621 107.501,3.82877 124.5,-0.5 Z"/></g>
</svg>
