<?xml version="1.0" encoding="UTF-8"?>
<!DOCTYPE svg PUBLIC "-//W3C//DTD SVG 1.1//EN" "http://www.w3.org/Graphics/SVG/1.1/DTD/svg11.dtd">
<svg xmlns="http://www.w3.org/2000/svg" version="1.1" width="700px" height="700px" style="shape-rendering:geometricPrecision; text-rendering:geometricPrecision; image-rendering:optimizeQuality; fill-rule:evenodd; clip-rule:evenodd" xmlns:xlink="http://www.w3.org/1999/xlink">
<g><path style="opacity:1" fill="#757675" d="M 312.5,-0.5 C 337.167,-0.5 361.833,-0.5 386.5,-0.5C 502.566,15.2465 591.399,72.5799 653,171.5C 678.038,215.445 693.538,262.445 699.5,312.5C 699.5,336.833 699.5,361.167 699.5,385.5C 683.76,501.549 626.426,590.383 527.5,652C 480.534,678.82 430.201,694.653 376.5,699.5C 358.833,699.5 341.167,699.5 323.5,699.5C 213.672,688.52 126.172,638.853 61,550.5C 27.0065,500.516 6.50655,445.516 -0.5,385.5C -0.5,361.167 -0.5,336.833 -0.5,312.5C 15.2402,196.451 72.5735,107.617 171.5,46C 215.443,20.9632 262.443,5.46316 312.5,-0.5 Z"/></g>
<g><path style="opacity:1" fill="#fefffe" d="M 346.5,92.5 C 366.533,93.7013 376.366,104.368 376,124.5C 387.383,109.298 401.217,106.465 417.5,116C 427.683,126.699 429.183,138.532 422,151.5C 406.667,166.833 391.333,182.167 376,197.5C 375.333,227.167 375.333,256.833 376,286.5C 396.333,266.167 416.667,245.833 437,225.5C 437.333,203.833 437.667,182.167 438,160.5C 442.311,141.196 454.145,133.696 473.5,138C 487.052,144.932 492.886,156.099 491,171.5C 505.319,156.836 519.653,156.836 534,171.5C 541.66,185.43 539.493,197.597 527.5,208C 551.33,206.833 562.83,217.999 562,241.5C 559.167,251 553,257.167 543.5,260C 520.208,261.282 496.875,261.948 473.5,262C 453.167,282.333 432.833,302.667 412.5,323C 442.167,323.667 471.833,323.667 501.5,323C 516.833,307.667 532.167,292.333 547.5,277C 565.586,268.058 579.086,272.558 588,290.5C 589.836,298.161 588.836,305.495 585,312.5C 581.5,316 578,319.5 574.5,323C 597.517,323.342 607.683,334.842 605,357.5C 601.631,366.871 595.131,372.704 585.5,375C 428.167,375.667 270.833,375.667 113.5,375C 97.3406,369.52 90.8406,358.354 94,341.5C 99.6459,328.086 109.813,321.919 124.5,323C 119.585,318.756 115.419,313.923 112,308.5C 107.826,296.721 110.326,286.555 119.5,278C 129.941,271.131 140.607,270.798 151.5,277C 166.833,292.333 182.167,307.667 197.5,323C 227.167,323.667 256.833,323.667 286.5,323C 266.167,302.667 245.833,282.333 225.5,262C 202.125,261.948 178.792,261.282 155.5,260C 139.464,253.762 133.631,242.262 138,225.5C 144.932,211.948 156.099,206.114 171.5,208C 159.507,197.597 157.34,185.43 165,171.5C 179.347,156.836 193.681,156.836 208,171.5C 206.833,147.67 217.999,136.17 241.5,137C 253.058,140.605 259.558,148.438 261,160.5C 261.333,182.167 261.667,203.833 262,225.5C 282.333,245.833 302.667,266.167 323,286.5C 323.667,256.833 323.667,227.167 323,197.5C 307.667,182.167 292.333,166.833 277,151.5C 270.774,140.656 271.107,129.99 278,119.5C 287.313,110.16 298.147,107.993 310.5,113C 314.967,116.465 319.133,120.298 323,124.5C 322.728,107.637 330.561,96.9706 346.5,92.5 Z"/></g>
<g><path style="opacity:1" fill="#757675" d="M 345.5,111.5 C 350.742,110.271 354.575,111.937 357,116.5C 357.333,127.5 357.667,138.5 358,149.5C 361.232,154.868 365.732,156.368 371.5,154C 379.863,145.303 388.53,136.969 397.5,129C 407.048,128.253 410.215,132.42 407,141.5C 390.304,157.862 373.971,174.528 358,191.5C 357.012,232.251 357.345,272.917 359,313.5C 362.509,317.613 366.676,318.446 371.5,316C 399.333,288.167 427.167,260.333 455,232.5C 456.304,208.229 456.971,183.896 457,159.5C 460.086,154.248 464.253,153.248 469.5,156.5C 470.934,158.22 471.767,160.22 472,162.5C 472.333,174.167 472.667,185.833 473,197.5C 475.633,202.067 479.467,203.567 484.5,202C 492.47,195.031 500.136,187.698 507.5,180C 517.667,177.5 521.5,181.333 519,191.5C 512,198.5 505,205.5 498,212.5C 495.219,218.044 496.386,222.544 501.5,226C 514.556,226.077 527.556,226.744 540.5,228C 546.075,233.115 545.742,237.781 539.5,242C 515.104,242.029 490.771,242.696 466.5,244C 438.667,271.833 410.833,299.667 383,327.5C 380.132,333.46 381.632,337.96 387.5,341C 427.5,341.667 467.5,341.667 507.5,341C 524.472,325.029 541.138,308.696 557.5,292C 566.646,288.823 570.812,291.989 570,301.5C 562.031,310.47 553.697,319.137 545,327.5C 542.632,333.268 544.132,337.768 549.5,341C 561.263,341.042 572.93,341.708 584.5,343C 588.5,347.333 588.5,351.667 584.5,356C 428.58,357.664 272.58,357.997 116.5,357C 111.776,354.565 110.276,350.731 112,345.5C 113.214,343.951 114.714,342.785 116.5,342C 127.5,341.667 138.5,341.333 149.5,341C 154.868,337.768 156.368,333.268 154,327.5C 145.303,319.137 136.969,310.47 129,301.5C 128.188,291.989 132.354,288.823 141.5,292C 157.862,308.696 174.528,325.029 191.5,341C 231.5,341.667 271.5,341.667 311.5,341C 317.368,337.96 318.868,333.46 316,327.5C 288.167,299.667 260.333,271.833 232.5,244C 208.229,242.696 183.896,242.029 159.5,242C 153.258,237.781 152.925,233.115 158.5,228C 171.444,226.744 184.444,226.077 197.5,226C 202.614,222.544 203.781,218.044 201,212.5C 194,205.5 187,198.5 180,191.5C 177.5,181.333 181.333,177.5 191.5,180C 198.864,187.698 206.53,195.031 214.5,202C 219.533,203.567 223.367,202.067 226,197.5C 226.333,185.833 226.667,174.167 227,162.5C 228.59,155.454 232.757,153.288 239.5,156C 240.701,156.903 241.535,158.069 242,159.5C 242.029,183.896 242.696,208.229 244,232.5C 271.833,260.333 299.667,288.167 327.5,316C 332.324,318.446 336.491,317.613 340,313.5C 341.655,272.917 341.988,232.251 341,191.5C 325.029,174.528 308.696,157.862 292,141.5C 288.785,132.42 291.952,128.253 301.5,129C 310.47,136.969 319.137,145.303 327.5,154C 333.268,156.368 337.768,154.868 341,149.5C 341.333,138.5 341.667,127.5 342,116.5C 342.997,114.677 344.164,113.01 345.5,111.5 Z"/></g>
<g><path style="opacity:1" fill="#fefffe" d="M 192.5,391.5 C 198.164,390.888 202.998,392.554 207,396.5C 211.91,406.66 217.577,416.326 224,425.5C 234.05,437.882 243.717,450.549 253,463.5C 266.743,486.774 268.077,510.774 257,535.5C 237.717,566.6 210.217,577.767 174.5,569C 144.607,557.106 128.607,535.106 126.5,503C 127.116,490.042 130.616,477.876 137,466.5C 147.513,451.476 158.513,436.809 170,422.5C 175.505,414.16 180.505,405.493 185,396.5C 187.426,394.548 189.926,392.881 192.5,391.5 Z"/></g>
<g><path style="opacity:1" fill="#fefffe" d="M 499.5,391.5 C 505.731,390.853 510.898,392.853 515,397.5C 518.906,406.318 523.573,414.652 529,422.5C 539.383,435.215 549.383,448.215 559,461.5C 576.914,490.173 576.247,518.506 557,546.5C 534.724,571.111 507.891,577.944 476.5,567C 443.538,550.579 430.038,524.079 436,487.5C 438.941,475.286 444.275,464.286 452,454.5C 467.675,436.818 481.008,417.484 492,396.5C 494.426,394.548 496.926,392.881 499.5,391.5 Z"/></g>
<g><path style="opacity:1" fill="#757675" d="M 195.5,414.5 C 199.976,421.435 204.476,428.435 209,435.5C 219.05,447.882 228.717,460.549 238,473.5C 251.955,499.378 248.455,522.544 227.5,543C 203.53,558.242 180.697,556.742 159,538.5C 142.55,517.177 141.216,494.844 155,471.5C 164.617,458.215 174.617,445.215 185,432.5C 189.154,426.855 192.654,420.855 195.5,414.5 Z"/></g>
<g><path style="opacity:1" fill="#757675" d="M 502.5,414.5 C 507.744,422.928 513.244,431.262 519,439.5C 527.715,449.88 536.048,460.547 544,471.5C 559.283,497.925 556.116,521.759 534.5,543C 513.49,556.959 492.49,556.959 471.5,543C 450.517,522.592 447.017,499.426 461,473.5C 471.949,458.216 483.282,443.216 495,428.5C 497.78,423.938 500.28,419.272 502.5,414.5 Z"/></g>
<g><path style="opacity:1" fill="#fefffe" d="M 346.5,425.5 C 352.943,425.035 358.109,427.369 362,432.5C 365.906,441.318 370.573,449.652 376,457.5C 386.383,470.215 396.383,483.215 406,496.5C 424.258,527.294 422.258,556.627 400,584.5C 377.693,606.199 351.86,611.699 322.5,601C 288.83,583.49 275.664,555.99 283,518.5C 284.943,512.672 287.276,507.005 290,501.5C 300.513,486.476 311.513,471.809 323,457.5C 328.427,449.652 333.094,441.318 337,432.5C 339.529,429.115 342.696,426.782 346.5,425.5 Z"/></g>
<g><path style="opacity:1" fill="#757675" d="M 348.5,449.5 C 349.376,449.369 350.043,449.702 350.5,450.5C 353.802,456.299 357.302,461.966 361,467.5C 372.062,480.629 382.396,494.295 392,508.5C 405.021,533.319 401.854,555.819 382.5,576C 361.086,590.948 339.419,591.281 317.5,577C 297.202,556.79 293.702,533.957 307,508.5C 316.604,494.295 326.938,480.629 338,467.5C 342.154,461.855 345.654,455.855 348.5,449.5 Z"/></g>
</svg>
