<?xml version="1.0" encoding="UTF-8"?>
<!DOCTYPE svg PUBLIC "-//W3C//DTD SVG 1.1//EN" "http://www.w3.org/Graphics/SVG/1.1/DTD/svg11.dtd">
<svg xmlns="http://www.w3.org/2000/svg" version="1.1" width="700px" height="700px" style="shape-rendering:geometricPrecision; text-rendering:geometricPrecision; image-rendering:optimizeQuality; fill-rule:evenodd; clip-rule:evenodd" xmlns:xlink="http://www.w3.org/1999/xlink">
<g><path style="opacity:0.999" fill="#02a8f3" d="M 305.5,-0.5 C 334.833,-0.5 364.167,-0.5 393.5,-0.5C 496.007,14.9849 577.84,64.3182 639,147.5C 671.49,195.475 691.657,248.142 699.5,305.5C 699.5,334.5 699.5,363.5 699.5,392.5C 682.294,506.139 624.961,592.973 527.5,653C 483.557,678.037 436.557,693.537 386.5,699.5C 361.833,699.5 337.167,699.5 312.5,699.5C 206.891,685.632 122.724,635.965 60,550.5C 27.5095,502.525 7.34286,449.858 -0.5,392.5C -0.5,363.5 -0.5,334.5 -0.5,305.5C 14.9782,203.009 64.3116,121.176 147.5,60C 195.472,27.5102 248.139,7.34355 305.5,-0.5 Z"/></g>
<g><path style="opacity:1" fill="#fefffe" d="M 346.5,93.5 C 358.748,93.3668 367.582,98.7001 373,109.5C 373.821,114.952 374.821,120.286 376,125.5C 387.383,110.298 401.217,107.465 417.5,117C 426.755,127.642 427.922,139.142 421,151.5C 405.667,166.833 390.333,182.167 375,197.5C 374.333,227.167 374.333,256.833 375,286.5C 375.333,286.833 375.667,287.167 376,287.5C 396.667,266.833 417.333,246.167 438,225.5C 438.333,203.833 438.667,182.167 439,160.5C 443.045,141.554 454.545,134.387 473.5,139C 482.364,142.56 487.53,149.06 489,158.5C 489.059,163.348 489.726,168.015 491,172.5C 504.691,158.263 518.691,157.93 533,171.5C 540.66,185.43 538.493,197.597 526.5,208C 533.483,208.982 540.483,210.316 547.5,212C 560.11,219.488 564.277,230.321 560,244.5C 555.668,253.486 548.501,258.653 538.5,260C 516.833,260.333 495.167,260.667 473.5,261C 452.833,281.667 432.167,302.333 411.5,323C 441.355,324.658 471.355,324.991 501.5,324C 516.833,308.667 532.167,293.333 547.5,278C 559.876,271.155 571.376,272.322 582,281.5C 589.424,291.423 590.091,301.756 584,312.5C 580.5,316 577,319.5 573.5,323C 587.851,322.42 598.018,328.586 604,341.5C 607.263,357.816 601.096,368.649 585.5,374C 428.167,374.667 270.833,374.667 113.5,374C 97.9035,368.649 91.7369,357.816 95,341.5C 100.982,328.586 111.149,322.42 125.5,323C 122,319.5 118.5,316 115,312.5C 107.901,298.586 110.401,286.752 122.5,277C 132.348,272.071 142.014,272.404 151.5,278C 166.833,293.333 182.167,308.667 197.5,324C 227.645,324.991 257.645,324.658 287.5,323C 266.833,302.333 246.167,281.667 225.5,261C 203.833,260.667 182.167,260.333 160.5,260C 143.336,256.491 135.836,245.991 138,228.5C 140.022,220.948 144.522,215.448 151.5,212C 158.517,210.316 165.517,208.982 172.5,208C 160.507,197.597 158.34,185.43 166,171.5C 180.309,157.93 194.309,158.263 208,172.5C 209.274,168.015 209.941,163.348 210,158.5C 214.383,142.474 224.883,135.64 241.5,138C 252.493,141.465 258.66,148.965 260,160.5C 260.333,182.167 260.667,203.833 261,225.5C 281.667,246.167 302.333,266.833 323,287.5C 323.333,287.167 323.667,286.833 324,286.5C 324.667,256.833 324.667,227.167 324,197.5C 308.667,182.167 293.333,166.833 278,151.5C 271.774,140.656 272.107,129.99 279,119.5C 288.26,111.088 298.76,109.255 310.5,114C 314.967,117.465 319.133,121.298 323,125.5C 322.728,108.637 330.561,97.9706 346.5,93.5 Z"/></g>
<g><path style="opacity:1" fill="#0faaf3" d="M 345.5,110.5 C 351.392,109.073 355.559,111.073 358,116.5C 358.333,127.5 358.667,138.5 359,149.5C 362.113,154.301 366.28,155.468 371.5,153C 379.863,144.303 388.53,135.969 397.5,128C 407.384,127.55 410.884,132.05 408,141.5C 391.304,157.862 374.971,174.528 359,191.5C 358.012,232.251 358.345,272.917 360,313.5C 363.453,316.769 367.286,317.269 371.5,315C 399,287.5 426.5,260 454,232.5C 455.304,208.229 455.971,183.896 456,159.5C 459.542,153.124 464.376,151.957 470.5,156C 471.863,157.945 472.697,160.112 473,162.5C 473.333,174.167 473.667,185.833 474,197.5C 476.602,201.212 480.102,202.378 484.5,201C 492.47,194.031 500.136,186.698 507.5,179C 518.333,176.5 522.5,180.667 520,191.5C 513,198.5 506,205.5 499,212.5C 496.413,217.413 497.247,221.58 501.5,225C 514.556,225.077 527.556,225.744 540.5,227C 547.421,232.743 547.088,238.076 539.5,243C 515.104,243.029 490.771,243.696 466.5,245C 439,272.5 411.5,300 384,327.5C 381.298,332.82 382.465,336.987 387.5,340C 427.5,340.667 467.5,340.667 507.5,340C 524.472,324.029 541.138,307.696 557.5,291C 567,288.172 571.5,291.672 571,301.5C 563.031,310.47 554.697,319.137 546,327.5C 543.532,332.72 544.699,336.887 549.5,340C 561.263,340.042 572.93,340.708 584.5,342C 589.833,347 589.833,352 584.5,357C 428.58,358.664 272.58,358.997 116.5,358C 110.911,355.549 109.078,351.383 111,345.5C 112.543,343.622 114.376,342.122 116.5,341C 127.5,340.667 138.5,340.333 149.5,340C 154.301,336.887 155.468,332.72 153,327.5C 144.303,319.137 135.969,310.47 128,301.5C 127.5,291.672 132,288.172 141.5,291C 157.862,307.696 174.528,324.029 191.5,340C 231.5,340.667 271.5,340.667 311.5,340C 316.535,336.987 317.702,332.82 315,327.5C 287.5,300 260,272.5 232.5,245C 208.229,243.696 183.896,243.029 159.5,243C 151.912,238.076 151.579,232.743 158.5,227C 171.444,225.744 184.444,225.077 197.5,225C 201.753,221.58 202.587,217.413 200,212.5C 193,205.5 186,198.5 179,191.5C 176.5,180.667 180.667,176.5 191.5,179C 198.864,186.698 206.53,194.031 214.5,201C 218.898,202.378 222.398,201.212 225,197.5C 225.333,185.833 225.667,174.167 226,162.5C 227.665,154.917 232.165,152.417 239.5,155C 241.049,156.214 242.215,157.714 243,159.5C 243.029,183.896 243.696,208.229 245,232.5C 272.5,260 300,287.5 327.5,315C 331.714,317.269 335.547,316.769 339,313.5C 340.655,272.917 340.988,232.251 340,191.5C 324.029,174.528 307.696,157.862 291,141.5C 288.116,132.05 291.616,127.55 301.5,128C 310.47,135.969 319.137,144.303 327.5,153C 332.72,155.468 336.887,154.301 340,149.5C 340.333,138.5 340.667,127.5 341,116.5C 342.332,114.34 343.832,112.34 345.5,110.5 Z"/></g>
<g><path style="opacity:1" fill="#fefffe" d="M 192.5,392.5 C 197.606,391.925 202.106,393.259 206,396.5C 210.91,406.66 216.577,416.326 223,425.5C 233.05,437.882 242.717,450.549 252,463.5C 265.743,486.774 267.077,510.774 256,535.5C 236.798,565.908 209.631,576.741 174.5,568C 145.133,556.274 129.466,534.608 127.5,503C 128.116,490.042 131.616,477.876 138,466.5C 148.513,451.476 159.513,436.809 171,422.5C 176.505,414.16 181.505,405.493 186,396.5C 188.095,394.875 190.261,393.542 192.5,392.5 Z"/></g>
<g><path style="opacity:1" fill="#fefffe" d="M 499.5,392.5 C 505.164,391.888 509.998,393.554 514,397.5C 517.906,406.318 522.573,414.652 528,422.5C 538.383,435.215 548.383,448.215 558,461.5C 575.914,490.173 575.247,518.506 556,546.5C 533.798,570.342 507.298,576.842 476.5,566C 444.105,549.711 430.938,523.545 437,487.5C 439.941,475.286 445.275,464.286 453,454.5C 468.675,436.818 482.008,417.484 493,396.5C 495.095,394.875 497.261,393.542 499.5,392.5 Z"/></g>
<g><path style="opacity:1" fill="#06a8f3" d="M 195.5,413.5 C 200.47,420.657 205.304,427.991 210,435.5C 220.05,447.882 229.717,460.549 239,473.5C 253.102,499.982 249.269,523.482 227.5,544C 202.923,559.517 179.756,557.683 158,538.5C 141.55,517.177 140.216,494.844 154,471.5C 163.617,458.215 173.617,445.215 184,432.5C 188.347,426.471 192.18,420.138 195.5,413.5 Z"/></g>
<g><path style="opacity:1" fill="#06a8f3" d="M 502.5,413.5 C 508.079,422.262 513.912,430.929 520,439.5C 528.715,449.88 537.048,460.547 545,471.5C 560.557,498.548 557.057,522.715 534.5,544C 507.721,560.65 483.555,557.483 462,534.5C 448.846,514.644 448.179,494.311 460,473.5C 470.949,458.216 482.282,443.216 494,428.5C 497.061,423.611 499.895,418.611 502.5,413.5 Z"/></g>
<g><path style="opacity:1" fill="#fefffe" d="M 346.5,426.5 C 352.369,426.066 357.202,428.066 361,432.5C 364.906,441.318 369.573,449.652 375,457.5C 385.383,470.215 395.383,483.215 405,496.5C 423.258,527.294 421.258,556.627 399,584.5C 376.768,605.394 351.268,610.561 322.5,600C 289.397,582.621 276.564,555.454 284,518.5C 285.943,512.672 288.276,507.005 291,501.5C 301.513,486.476 312.513,471.809 324,457.5C 329.427,449.652 334.094,441.318 338,432.5C 340.322,429.605 343.155,427.605 346.5,426.5 Z"/></g>
<g><path style="opacity:1" fill="#06a8f3" d="M 348.5,448.5 C 349.496,448.414 350.329,448.748 351,449.5C 354.27,455.764 357.936,461.764 362,467.5C 373.062,480.629 383.396,494.295 393,508.5C 406.249,533.931 402.749,556.765 382.5,577C 361.086,591.948 339.419,592.281 317.5,578C 296.32,557.737 292.487,534.57 306,508.5C 315.604,494.295 325.938,480.629 337,467.5C 341.347,461.471 345.18,455.138 348.5,448.5 Z"/></g>
</svg>
