<?xml version="1.0" encoding="UTF-8"?>
<!DOCTYPE svg PUBLIC "-//W3C//DTD SVG 1.1//EN" "http://www.w3.org/Graphics/SVG/1.1/DTD/svg11.dtd">
<svg xmlns="http://www.w3.org/2000/svg" version="1.1" width="1200px" height="512px" style="shape-rendering:geometricPrecision; text-rendering:geometricPrecision; image-rendering:optimizeQuality; fill-rule:evenodd; clip-rule:evenodd" xmlns:xlink="http://www.w3.org/1999/xlink">
<g><path style="opacity:0.999" fill="#38ef7c" d="M 132.5,-0.5 C 445.833,-0.5 759.167,-0.5 1072.5,-0.5C 1144.39,20.2575 1186.23,67.9241 1198,142.5C 1198.67,218.167 1198.67,293.833 1198,369.5C 1190.69,425.988 1162.52,468.488 1113.5,497C 1102.2,502.898 1090.54,507.731 1078.5,511.5C 762.833,511.5 447.167,511.5 131.5,511.5C 63.448,494.949 20.6147,452.616 3,384.5C 1.93169,376.341 0.765027,368.341 -0.5,360.5C -0.5,290.5 -0.5,220.5 -0.5,150.5C 9.53157,69.8096 53.8649,19.4763 132.5,-0.5 Z"/></g>
</svg>
