<?xml version="1.0" encoding="UTF-8"?>
<!DOCTYPE svg PUBLIC "-//W3C//DTD SVG 1.1//EN" "http://www.w3.org/Graphics/SVG/1.1/DTD/svg11.dtd">
<svg xmlns="http://www.w3.org/2000/svg" version="1.1" width="512px" height="512px" style="shape-rendering:geometricPrecision; text-rendering:geometricPrecision; image-rendering:optimizeQuality; fill-rule:evenodd; clip-rule:evenodd" xmlns:xlink="http://www.w3.org/1999/xlink">
<g><path style="opacity:1" fill="#452e00" d="M 232.5,-0.5 C 247.833,-0.5 263.167,-0.5 278.5,-0.5C 307.552,2.59834 335.552,10.0983 362.5,22C 368.552,24.6874 374.219,27.8541 379.5,31.5C 380.315,32.8366 381.482,33.8366 383,34.5C 383.399,34.2716 383.565,33.9382 383.5,33.5C 393.534,38.8465 402.867,45.1799 411.5,52.5C 412.585,54.5869 414.251,55.9202 416.5,56.5C 418.027,56.427 419.027,57.0937 419.5,58.5C 419.369,59.2389 419.536,59.9056 420,60.5C 420.69,61.7383 421.19,61.7383 421.5,60.5C 422.71,60.9321 423.71,61.5987 424.5,62.5C 424.062,62.4346 423.728,62.6012 423.5,63C 426.432,66.442 429.765,69.2754 433.5,71.5C 436.833,74.1667 439.833,77.1667 442.5,80.5C 443.167,83.1667 444.833,84.8333 447.5,85.5C 462.144,101.829 474.477,119.829 484.5,139.5C 483.535,140.721 483.702,142.054 485,143.5C 485.399,143.272 485.565,142.938 485.5,142.5C 499.643,170.929 508.31,200.929 511.5,232.5C 511.5,247.833 511.5,263.167 511.5,278.5C 509.941,291.513 507.607,304.513 504.5,317.5C 502.618,318.221 502.285,319.221 503.5,320.5C 499.611,336.836 493.944,352.503 486.5,367.5C 485.624,367.369 484.957,367.702 484.5,368.5C 483.45,369.429 483.45,370.095 484.5,370.5C 447.585,441.89 389.918,487.056 311.5,506C 300.424,508.254 289.424,510.087 278.5,511.5C 263.167,511.5 247.833,511.5 232.5,511.5C 223.086,510.323 213.753,508.656 204.5,506.5C 203.003,505.694 201.336,505.028 199.5,504.5C 198.893,504.624 198.56,504.957 198.5,505.5C 197.833,505.5 197.167,505.5 196.5,505.5C 194.159,503.149 191.159,502.149 187.5,502.5C 176.333,500.001 165.666,496.334 155.5,491.5C 154.779,489.618 153.779,489.285 152.5,490.5C 148.917,489.203 145.584,487.537 142.5,485.5C 141.521,483.98 139.687,482.647 137,481.5C 136.601,481.728 136.435,482.062 136.5,482.5C 134.326,482.25 132.659,481.25 131.5,479.5C 130.685,478.163 129.518,477.163 128,476.5C 127.601,476.728 127.435,477.062 127.5,477.5C 115.504,470.834 104.171,463.167 93.5,454.5C 92.7974,452.284 91.4641,450.451 89.5,449C 88.5632,448.308 87.8966,448.475 87.5,449.5C 81.8333,444.5 76.5,439.167 71.5,433.5C 71.1667,431.167 69.8333,429.833 67.5,429.5C 56.8082,419.105 47.8082,407.439 40.5,394.5C 40.573,392.973 39.9063,391.973 38.5,391.5C 25.1802,371.57 15.5135,349.904 9.5,326.5C 9.84316,324.517 9.17649,323.183 7.5,322.5C 5.44934,314.247 3.78267,305.913 2.5,297.5C 3.09674,297.265 3.43007,296.765 3.5,296C 3.04626,293.97 2.37959,292.137 1.5,290.5C 1.04433,286.336 0.377659,282.336 -0.5,278.5C -0.5,263.167 -0.5,247.833 -0.5,232.5C 0.473067,230.052 0.8064,227.385 0.5,224.5C 1.11742,224.389 1.61742,224.056 2,223.5C 2.56412,218.615 3.39745,213.782 4.5,209C 4.43007,208.235 4.09674,207.735 3.5,207.5C 3.80233,204.627 4.46899,201.961 5.5,199.5C 6.38855,199.187 7.05522,198.02 7.5,196C 7.27155,195.601 6.93822,195.435 6.5,195.5C 6.5,195.167 6.5,194.833 6.5,194.5C 8.40975,191.548 9.40975,188.214 9.5,184.5C 9.55975,181.659 10.2264,178.993 11.5,176.5C 14.1901,171.468 16.5234,166.135 18.5,160.5C 18.3764,159.893 18.0431,159.56 17.5,159.5C 19.1667,155.5 20.8333,151.5 22.5,147.5C 24.0481,147.179 24.7148,146.179 24.5,144.5C 32.6748,126.129 43.3415,109.462 56.5,94.5C 58.914,93.0892 60.5806,91.0892 61.5,88.5C 67.1089,81.2224 73.4423,74.5557 80.5,68.5C 83.4929,67.2195 86.1595,64.8862 88.5,61.5C 90.2193,58.7805 92.5526,56.7805 95.5,55.5C 95.4346,55.9382 95.6012,56.2716 96,56.5C 98.8598,54.4983 101.36,52.165 103.5,49.5C 114.096,40.5926 125.762,33.2593 138.5,27.5C 138.435,27.9382 138.601,28.2716 139,28.5C 140.518,27.8366 141.685,26.8366 142.5,25.5C 149.094,21.7068 156.094,18.7068 163.5,16.5C 165.179,16.7148 166.179,16.0481 166.5,14.5C 178.324,10.544 190.324,7.21067 202.5,4.5C 202.735,5.09674 203.235,5.43007 204,5.5C 206.346,5.00985 208.513,4.34318 210.5,3.5C 217.779,1.8404 225.112,0.507064 232.5,-0.5 Z"/></g>
<g><path style="opacity:0.169" fill="#729700" d="M 210.5,3.5 C 208.513,4.34318 206.346,5.00985 204,5.5C 203.235,5.43007 202.735,5.09674 202.5,4.5C 205.096,3.73465 207.763,3.40132 210.5,3.5 Z"/></g>
<g><path style="opacity:0.882" fill="#aad500" d="M 166.5,14.5 C 166.179,16.0481 165.179,16.7148 163.5,16.5C 164.29,15.5987 165.29,14.9321 166.5,14.5 Z"/></g>
<g><path style="opacity:0.941" fill="#a9cafd" d="M 142.5,25.5 C 141.685,26.8366 140.518,27.8366 139,28.5C 138.601,28.2716 138.435,27.9382 138.5,27.5C 139.514,26.3263 140.847,25.6596 142.5,25.5 Z"/></g>
<g><path style="opacity:0.537" fill="#65b700" d="M 379.5,31.5 C 381.153,31.6596 382.486,32.3263 383.5,33.5C 383.565,33.9382 383.399,34.2716 383,34.5C 381.482,33.8366 380.315,32.8366 379.5,31.5 Z"/></g>
<g><path style="opacity:0.729" fill="#aea3fc" d="M 103.5,49.5 C 101.36,52.165 98.8598,54.4983 96,56.5C 95.6012,56.2716 95.4346,55.9382 95.5,55.5C 97.8003,53.016 100.467,51.016 103.5,49.5 Z"/></g>
<g><path style="opacity:0.89" fill="#ba92fd" d="M 411.5,52.5 C 413.749,53.0798 415.415,54.4131 416.5,56.5C 414.251,55.9202 412.585,54.5869 411.5,52.5 Z"/></g>
<g><path style="opacity:0.984" fill="#75c3ff" d="M 419.5,58.5 C 420.5,58.8333 421.167,59.5 421.5,60.5C 421.19,61.7383 420.69,61.7383 420,60.5C 419.536,59.9056 419.369,59.2389 419.5,58.5 Z"/></g>
<g><path style="opacity:0.753" fill="#76a602" d="M 88.5,61.5 C 86.1595,64.8862 83.4929,67.2195 80.5,68.5C 82.5691,65.4275 85.2358,63.0941 88.5,61.5 Z"/></g>
<g><path style="opacity:0.318" fill="#a772ff" d="M 424.5,62.5 C 427.833,65.1667 430.833,68.1667 433.5,71.5C 429.765,69.2754 426.432,66.442 423.5,63C 423.728,62.6012 424.062,62.4346 424.5,62.5 Z"/></g>
<g><path style="opacity:0.843" fill="#628c01" d="M 442.5,80.5 C 444.5,81.8333 446.167,83.5 447.5,85.5C 444.833,84.8333 443.167,83.1667 442.5,80.5 Z"/></g>
<g><path style="opacity:0.792" fill="#ba95fd" d="M 61.5,88.5 C 60.5806,91.0892 58.914,93.0892 56.5,94.5C 57.4194,91.9108 59.086,89.9108 61.5,88.5 Z"/></g>
<g><path style="opacity:1" fill="#fdfdfc" d="M 347.5,117.5 C 355.297,116.405 362.297,118.238 368.5,123C 375.667,130.167 382.833,137.333 390,144.5C 397.773,156.328 397.107,167.661 388,178.5C 381.624,185.211 374.957,191.545 368,197.5C 350.027,180.694 332.527,163.36 315.5,145.5C 322.985,137.514 330.652,129.681 338.5,122C 341.592,120.454 344.592,118.954 347.5,117.5 Z"/></g>
<g><path style="opacity:0.941" fill="#7bc400" d="M 484.5,139.5 C 485.11,140.391 485.443,141.391 485.5,142.5C 485.565,142.938 485.399,143.272 485,143.5C 483.702,142.054 483.535,140.721 484.5,139.5 Z"/></g>
<g><path style="opacity:0.902" fill="#21b500" d="M 24.5,144.5 C 24.7148,146.179 24.0481,147.179 22.5,147.5C 22.9321,146.29 23.5987,145.29 24.5,144.5 Z"/></g>
<g><path style="opacity:1" fill="#fefefe" d="M 219.5,190.5 C 197.833,190.5 176.167,190.5 154.5,190.5C 154.168,245.003 154.501,299.336 155.5,353.5C 209.664,354.499 263.997,354.832 318.5,354.5C 318.5,334.5 318.5,314.5 318.5,294.5C 322.028,282.562 330.028,277.395 342.5,279C 349.573,281.072 354.406,285.572 357,292.5C 357.667,317.5 357.667,342.5 357,367.5C 352.708,382.462 342.874,390.962 327.5,393C 265.833,393.667 204.167,393.667 142.5,393C 128.342,389.509 119.509,380.676 116,366.5C 115.333,303.5 115.333,240.5 116,177.5C 119.833,164.333 128.333,155.833 141.5,152C 168.167,151.333 194.833,151.333 221.5,152C 236.123,158.082 239.956,168.248 233,182.5C 229.77,187.363 225.27,190.03 219.5,190.5 Z"/></g>
<g><path style="opacity:1" fill="#fefefd" d="M 303.5,155.5 C 322.095,172.427 340.095,190.094 357.5,208.5C 324.68,240.82 292.014,273.32 259.5,306C 252.009,310.499 244.009,313.832 235.5,316C 225.041,318.532 214.708,321.532 204.5,325C 191.443,329.416 185.61,324.916 187,311.5C 191.867,293.565 197.534,275.898 204,258.5C 205.667,256.167 207.333,253.833 209,251.5C 241.085,219.916 272.585,187.916 303.5,155.5 Z"/></g>
<g><path style="opacity:0.965" fill="#9ba6fe" d="M 17.5,159.5 C 18.0431,159.56 18.3764,159.893 18.5,160.5C 16.5234,166.135 14.1901,171.468 11.5,176.5C 13.1073,170.677 15.1073,165.011 17.5,159.5 Z"/></g>
<g><path style="opacity:0.965" fill="#b1b2fe" d="M 9.5,184.5 C 9.40975,188.214 8.40975,191.548 6.5,194.5C 6.89934,190.884 7.89934,187.55 9.5,184.5 Z"/></g>
<g><path style="opacity:1" fill="#b7ae9c" d="M 219.5,190.5 C 198.34,191.497 177.007,191.831 155.5,191.5C 155.5,245.5 155.5,299.5 155.5,353.5C 154.501,299.336 154.168,245.003 154.5,190.5C 176.167,190.5 197.833,190.5 219.5,190.5 Z"/></g>
<g><path style="opacity:0.745" fill="#81d100" d="M 6.5,195.5 C 6.93822,195.435 7.27155,195.601 7.5,196C 7.05522,198.02 6.38855,199.187 5.5,199.5C 5.23219,197.901 5.56552,196.568 6.5,195.5 Z"/></g>
<g><path style="opacity:0.412" fill="#898a02" d="M 3.5,207.5 C 4.09674,207.735 4.43007,208.235 4.5,209C 3.39745,213.782 2.56412,218.615 2,223.5C 1.61742,224.056 1.11742,224.389 0.5,224.5C 1.40699,218.818 2.40699,213.151 3.5,207.5 Z"/></g>
<g><path style="opacity:0.129" fill="#ce9efb" d="M 1.5,290.5 C 2.37959,292.137 3.04626,293.97 3.5,296C 3.43007,296.765 3.09674,297.265 2.5,297.5C 1.78138,295.236 1.44805,292.903 1.5,290.5 Z"/></g>
<g><path style="opacity:0.063" fill="#aee8ff" d="M 504.5,317.5 C 504.443,318.609 504.11,319.609 503.5,320.5C 502.285,319.221 502.618,318.221 504.5,317.5 Z"/></g>
<g><path style="opacity:0.965" fill="#bfcfff" d="M 7.5,322.5 C 9.17649,323.183 9.84316,324.517 9.5,326.5C 8.65536,325.329 7.98869,323.995 7.5,322.5 Z"/></g>
<g><path style="opacity:1" fill="#b9b09f" d="M 318.5,294.5 C 318.5,314.5 318.5,334.5 318.5,354.5C 263.997,354.832 209.664,354.499 155.5,353.5C 209.5,353.5 263.5,353.5 317.5,353.5C 317.17,333.66 317.503,313.993 318.5,294.5 Z"/></g>
<g><path style="opacity:0.063" fill="#ade8ff" d="M 486.5,367.5 C 486.068,368.71 485.401,369.71 484.5,370.5C 483.45,370.095 483.45,369.429 484.5,368.5C 484.957,367.702 485.624,367.369 486.5,367.5 Z"/></g>
<g><path style="opacity:0.251" fill="#e3e3ff" d="M 38.5,391.5 C 39.9063,391.973 40.573,392.973 40.5,394.5C 39.0937,394.027 38.427,393.027 38.5,391.5 Z"/></g>
<g><path style="opacity:0.969" fill="#75bd00" d="M 67.5,429.5 C 69.8333,429.833 71.1667,431.167 71.5,433.5C 69.8333,432.5 68.5,431.167 67.5,429.5 Z"/></g>
<g><path style="opacity:0.78" fill="#ba96fe" d="M 87.5,449.5 C 87.8966,448.475 88.5632,448.308 89.5,449C 91.4641,450.451 92.7974,452.284 93.5,454.5C 91.5,452.833 89.5,451.167 87.5,449.5 Z"/></g>
<g><path style="opacity:0.988" fill="#72b9ff" d="M 131.5,479.5 C 129.847,479.34 128.514,478.674 127.5,477.5C 127.435,477.062 127.601,476.728 128,476.5C 129.518,477.163 130.685,478.163 131.5,479.5 Z"/></g>
<g><path style="opacity:0.937" fill="#c24700" d="M 142.5,485.5 C 140.181,485.008 138.181,484.008 136.5,482.5C 136.435,482.062 136.601,481.728 137,481.5C 139.687,482.647 141.521,483.98 142.5,485.5 Z"/></g>
<g><path style="opacity:0.494" fill="#78cfff" d="M 152.5,490.5 C 153.779,489.285 154.779,489.618 155.5,491.5C 154.391,491.443 153.391,491.11 152.5,490.5 Z"/></g>
<g><path style="opacity:0.733" fill="#c8a5fc" d="M 187.5,502.5 C 191.159,502.149 194.159,503.149 196.5,505.5C 193.368,504.64 190.368,503.64 187.5,502.5 Z"/></g>
<g><path style="opacity:0.38" fill="#9ac8fc" d="M 198.5,505.5 C 198.56,504.957 198.893,504.624 199.5,504.5C 201.336,505.028 203.003,505.694 204.5,506.5C 202.379,506.675 200.379,506.341 198.5,505.5 Z"/></g>
</svg>
