<?xml version="1.0" encoding="UTF-8"?>
<!DOCTYPE svg PUBLIC "-//W3C//DTD SVG 1.1//EN" "http://www.w3.org/Graphics/SVG/1.1/DTD/svg11.dtd">
<svg xmlns="http://www.w3.org/2000/svg" version="1.1" width="512px" height="512px" style="shape-rendering:geometricPrecision; text-rendering:geometricPrecision; image-rendering:optimizeQuality; fill-rule:evenodd; clip-rule:evenodd" xmlns:xlink="http://www.w3.org/1999/xlink">
<g><path style="opacity:0.937" fill="#fefffe" d="M 181.5,44.5 C 214.957,42.1126 247.29,46.9459 278.5,59C 325.557,79.6029 360.724,112.77 384,158.5C 387.363,165.556 389.863,172.889 391.5,180.5C 391.911,187.021 389.244,191.687 383.5,194.5C 379.5,195.167 375.5,195.833 371.5,196.5C 366.127,195.612 361.961,192.945 359,188.5C 353.915,174.33 347.248,160.997 339,148.5C 333.32,142.485 327.987,136.151 323,129.5C 273.576,82.0189 215.743,67.5189 149.5,86C 77.18,113.871 38.18,166.705 32.5,244.5C 34.7513,292.113 52.418,332.946 85.5,367C 133.103,409.125 187.77,422.125 249.5,406C 277.425,396.629 301.925,381.796 323,361.5C 327.641,354.531 332.974,348.197 339,342.5C 344.942,333.618 350.109,324.284 354.5,314.5C 362.653,309.374 370.987,309.207 379.5,314C 382.347,317.875 384.014,322.208 384.5,327C 382.824,333.859 380.157,340.359 376.5,346.5C 370.171,356.48 363.337,366.147 356,375.5C 340.814,392.406 323.648,406.906 304.5,419C 253.882,447.183 200.549,453.85 144.5,439C 75.6492,416.816 30.1492,371.316 8,302.5C -11.8523,220.76 8.3144,150.927 68.5,93C 89.204,76.1424 112.204,63.1424 137.5,54C 152.12,49.9781 166.787,46.8114 181.5,44.5 Z"/></g>
<g><path style="opacity:0.938" fill="#fefffe" d="M 429.5,148.5 C 433.605,148.234 437.605,148.734 441.5,150C 445.325,152.825 448.825,155.992 452,159.5C 469.614,187.752 487.947,215.419 507,242.5C 508.166,246.997 509.333,251.497 510.5,256C 509.836,259.991 508.669,263.824 507,267.5C 485.286,294.212 463.952,321.212 443,348.5C 435.719,357.063 427.219,358.563 417.5,353C 412.209,348.604 410.209,343.104 411.5,336.5C 426.127,314.363 442.127,293.196 459.5,273C 377.835,271.599 296.169,270.265 214.5,269C 203.068,266.321 198.568,259.154 201,247.5C 203.321,239.915 208.488,236.082 216.5,236C 289.995,236.534 363.495,237.368 437,238.5C 445.5,238.167 454,237.833 462.5,237.5C 449.667,218.5 436.833,199.5 424,180.5C 418.599,173.136 417.266,165.136 420,156.5C 422.161,152.495 425.328,149.829 429.5,148.5 Z"/></g>
</svg>
