<?xml version="1.0" encoding="UTF-8"?>
<!DOCTYPE svg PUBLIC "-//W3C//DTD SVG 1.1//EN" "http://www.w3.org/Graphics/SVG/1.1/DTD/svg11.dtd">
<svg xmlns="http://www.w3.org/2000/svg" version="1.1" width="1200px" height="1200px" style="shape-rendering:geometricPrecision; text-rendering:geometricPrecision; image-rendering:optimizeQuality; fill-rule:evenodd; clip-rule:evenodd" xmlns:xlink="http://www.w3.org/1999/xlink">
<g><path style="opacity:1" fill="#d5a97a" d="M 128.5,-0.5 C 444.833,-0.5 761.167,-0.5 1077.5,-0.5C 1139.98,19.3106 1180.64,60.644 1199.5,123.5C 1199.5,439.833 1199.5,756.167 1199.5,1072.5C 1184.31,1133.71 1147.31,1176.04 1088.5,1199.5C 764.833,1199.5 441.167,1199.5 117.5,1199.5C 68.51,1183.03 32.6767,1151.36 10,1104.5C 5.56067,1094.02 2.06067,1083.35 -0.5,1072.5C -0.5,759.167 -0.5,445.833 -0.5,132.5C 13.3817,74.7613 47.3817,33.2613 101.5,8C 110.577,4.98865 119.577,2.15532 128.5,-0.5 Z"/></g>
</svg>
