<?xml version="1.0" encoding="UTF-8"?>
<!DOCTYPE svg PUBLIC "-//W3C//DTD SVG 1.1//EN" "http://www.w3.org/Graphics/SVG/1.1/DTD/svg11.dtd">
<svg xmlns="http://www.w3.org/2000/svg" version="1.1" width="1200px" height="1200px" style="shape-rendering:geometricPrecision; text-rendering:geometricPrecision; image-rendering:optimizeQuality; fill-rule:evenodd; clip-rule:evenodd" xmlns:xlink="http://www.w3.org/1999/xlink">
<g><path style="opacity:1" fill="#fefffe" d="M 125.5,-0.5 C 443.833,-0.5 762.167,-0.5 1080.5,-0.5C 1127.22,15.3556 1162.72,45.0223 1187,88.5C 1191.69,99.0912 1195.86,109.758 1199.5,120.5C 1199.5,439.167 1199.5,757.833 1199.5,1076.5C 1185.64,1126.91 1155.64,1165.08 1109.5,1191C 1102.76,1193.96 1096.1,1196.79 1089.5,1199.5C 764.5,1199.5 439.5,1199.5 114.5,1199.5C 62.4722,1180.31 25.9722,1144.97 5,1093.5C 2.83459,1087.48 1.00126,1081.48 -0.5,1075.5C -0.5,760.167 -0.5,444.833 -0.5,129.5C 14.3529,72.4655 48.6862,31.6321 102.5,7C 110.22,4.3275 117.887,1.8275 125.5,-0.5 Z"/></g>
</svg>
